<?xml version="1.0" encoding="UTF-8"?>
<!DOCTYPE svg PUBLIC "-//W3C//DTD SVG 1.1//EN"
 "http://www.w3.org/Graphics/SVG/1.1/DTD/svg11.dtd">

<svg height="800px" width="800px" version="1.1"
     xmlns="http://www.w3.org/2000/svg"
     xmlns:xlink="http://www.w3.org/1999/xlink"
     viewBox="-51.2 -51.2 614.40 614.40"
     xml:space="preserve">

  <!-- Outer light-gray (looks white) border -->
  <g stroke-linecap="round" stroke-linejoin="round"
     stroke="#CCCCCC" stroke-width="69.632" fill="none">
    <path d="M110.291,16.528c0,0,105.156-28.254,133.495,65.21
             C243.785,81.738,170.185,125.652,110.291,16.528z"/>
    <path d="M238.343,169.456c-1.457-3.58-34.538-88.393,45.793-169.456
             l22.745,22.534c-65.016,65.614-39.904,132.172-38.809,134.969
             L238.343,169.456z"/>
    <path d="M360.196,109.621c-55.927,2.03-87.668,36.526-104.171,36.526
             s-48.244-34.496-104.171-36.526
             C95.928,107.591,0.021,149.728,0.021,279.254
             S104.209,512,157.549,512
             s71.915-15.163,98.451-15.163
             S301.085,512,354.451,512
             s157.528-103.227,157.528-232.746
             S416.123,107.591,360.196,109.621z"/>
  </g>

  <!-- Inner icon (with normal fill and dark border) -->
  <g stroke="#4e2d2d" stroke-width="22.016" fill="#4e2d2d">
    <path style="fill:#43bf0d;" stroke="none"
          d="M110.291,16.528c0,0,105.156-28.254,133.495,65.21
             C243.785,81.738,170.185,125.652,110.291,16.528z"/>
    <path stroke="none"
          d="M238.343,169.456c-1.457-3.58-34.538-88.393,45.793-169.456
             l22.745,22.534c-65.016,65.614-39.904,132.172-38.809,134.969
             L238.343,169.456z"/>
    <path style="fill:#000000;" stroke="none"
          d="M360.196,109.621c-55.927,2.03-87.668,36.526-104.171,36.526
             s-48.244-34.496-104.171-36.526
             C95.928,107.591,0.021,149.728,0.021,279.254
             S104.209,512,157.549,512
             s71.915-15.163,98.451-15.163
             S301.085,512,354.451,512
             s157.528-103.227,157.528-232.746
             S416.123,107.591,360.196,109.621z"/>
  </g>
</svg>